<svg width="40" height="26" viewBox="0 0 40 26" fill="none" xmlns="http://www.w3.org/2000/svg">
<path d="M28.625 0.937496C28.4093 0.76675 28.162 0.640405 27.8972 0.565752C27.6325 0.491099 27.3556 0.469616 27.0825 0.502543C26.8094 0.53547 26.5455 0.622155 26.3061 0.757596C26.0666 0.893036 25.8564 1.07455 25.6875 1.29166L11.1042 20.0417L3.95834 11.3333C3.79072 11.1102 3.57999 10.923 3.33865 10.7829C3.09731 10.6428 2.83028 10.5526 2.55341 10.5177C2.27654 10.4828 1.99548 10.5038 1.7269 10.5796C1.45833 10.6554 1.20771 10.7844 0.989939 10.9589C0.772164 11.1334 0.591666 11.3498 0.459159 11.5954C0.326653 11.841 0.244838 12.1107 0.218572 12.3886C0.192307 12.6664 0.222125 12.9467 0.306257 13.2127C0.39039 13.4788 0.527121 13.7253 0.708335 13.9375L9.39583 24.7292C9.59191 24.9709 9.83966 25.1656 10.1209 25.299C10.4021 25.4324 10.7096 25.5011 11.0208 25.5C11.3512 25.5147 11.6803 25.4506 11.981 25.313C12.2817 25.1753 12.5453 24.9681 12.75 24.7083L29.0625 3.875C29.2288 3.65422 29.3495 3.40255 29.4176 3.13466C29.4857 2.86676 29.4998 2.588 29.4591 2.3146C29.4183 2.04121 29.3236 1.77865 29.1804 1.54222C29.0372 1.3058 28.8484 1.10023 28.625 0.937496ZM39.0417 0.937496C38.826 0.76675 38.5786 0.640405 38.3139 0.565752C38.0491 0.491099 37.7722 0.469616 37.4991 0.502543C37.226 0.53547 36.9621 0.622155 36.7227 0.757596C36.4833 0.893036 36.2731 1.07455 36.1042 1.29166L21.5208 20.0417L20.25 18.4792L17.625 21.8542L19.9167 24.7083C20.1127 24.95 20.3605 25.1447 20.6417 25.2781C20.9229 25.4115 21.2304 25.4802 21.5417 25.4792C21.8546 25.4777 22.1632 25.4058 22.4445 25.2687C22.7258 25.1317 22.9727 24.933 23.1667 24.6875L39.4792 3.85416C39.6422 3.63403 39.7603 3.3839 39.8265 3.11809C39.8928 2.85228 39.906 2.576 39.8654 2.30509C39.8247 2.03417 39.731 1.77393 39.5897 1.53926C39.4484 1.30459 39.2621 1.1001 39.0417 0.937496Z" fill="#00676D"/>
<path d="M12.1458 15.2083L14.8333 11.8333L14.4167 11.3333C14.2522 11.1055 14.0433 10.9132 13.8026 10.7682C13.5619 10.6231 13.2943 10.5283 13.016 10.4894C12.7377 10.4505 12.4543 10.4682 12.1831 10.5417C11.9118 10.6151 11.6582 10.7427 11.4375 10.9167C11.2235 11.0886 11.0456 11.3011 10.914 11.542C10.7823 11.7829 10.6996 12.0475 10.6706 12.3204C10.6416 12.5934 10.6668 12.8694 10.7447 13.1327C10.8227 13.3959 10.9519 13.6411 11.125 13.8542L12.1458 15.2083Z" fill="#00676D"/>
</svg>
